<svg width="24" height="24" fill="none" xmlns="http://www.w3.org/2000/svg"><path fill-rule="evenodd" clip-rule="evenodd" d="M12 2a10 10 0 1 0 0 20 10 10 0 0 0 0-20ZM7 18.3c.5-1 3.1-1.8 5-1.8s4.5.9 5 1.8a7.9 7.9 0 0 1-10 0Zm11.4-1.5c-1.5-1.7-5-2.3-6.4-2.3-1.5 0-5 .6-6.4 2.3a8 8 0 1 1 12.7 0ZM12 6c-2 0-3.5 1.6-3.5 3.5 0 2 1.6 3.5 3.5 3.5 2 0 3.5-1.6 3.5-3.5 0-2-1.6-3.5-3.5-3.5Zm0 5a1.5 1.5 0 1 1 0-3 1.5 1.5 0 0 1 0 3Z" fill="#fff"/><mask id="a" style="mask-type:alpha" maskUnits="userSpaceOnUse" x="2" y="2" width="20" height="20"><path fill-rule="evenodd" clip-rule="evenodd" d="M12 2a10 10 0 1 0 0 20 10 10 0 0 0 0-20ZM7 18.3c.5-1 3.1-1.8 5-1.8s4.5.9 5 1.8a7.9 7.9 0 0 1-10 0Zm11.4-1.5c-1.5-1.7-5-2.3-6.4-2.3-1.5 0-5 .6-6.4 2.3a8 8 0 1 1 12.7 0ZM12 6c-2 0-3.5 1.6-3.5 3.5 0 2 1.6 3.5 3.5 3.5 2 0 3.5-1.6 3.5-3.5 0-2-1.6-3.5-3.5-3.5Zm0 5a1.5 1.5 0 1 1 0-3 1.5 1.5 0 0 1 0 3Z" fill="#fff"/></mask></svg>