<svg width="108" height="24" fill="none" xmlns="http://www.w3.org/2000/svg"><path d="M1 23h8.9v-.4c-3.2-.5-4.2-1.8-4.2-5V2.9h.2L14.2 23h1.2L22.8 3h.2v17.8c0 1.3-.8 1.8-3.1 1.9v.4h11v-.4c-2.6-.1-3.3-.7-3.3-1.9V3c0-1.2.7-1.8 3.3-1.9V.7h-8.1l-6 16.4h-.2L10 .7H1v.4c2.7 0 3.9 1.5 3.9 3.5v13c0 3.2-1 4.6-4 5v.4ZM52.1 23.4h1.6V6c0-3.2.8-4.5 3.8-5V.7h-9v.4c3.2.4 4.4 1.8 4.4 5v10.6L40.4.7H33v.4c2.7.1 3.9 1.8 3.9 3.7v12.8c0 3.2-1 4.6-4 5v.4h9v-.4c-3.2-.4-4.2-1.8-4.2-5V4.7l14.4 18.7ZM63.6 23h12.1v-.4c-2.9-.1-3.7-.7-3.7-1.9V1.3h.8c2.4 0 4.3 2.4 6.6 6.8h.5L79.7.6H59.6L59.4 8h.5C62 3.7 64 1.4 66.5 1.4h.8v19.4c0 1.2-.9 1.8-3.7 1.9v.4ZM102.1 23.4h1.6V6c0-3.2.8-4.5 3.8-5V.7h-9v.4c3.2.4 4.4 1.8 4.4 5v10.6L90.4.7H83v.4c2.7.1 3.9 1.8 3.9 3.7v12.8c0 3.2-1 4.6-4 5v.4h9v-.4c-3.2-.4-4.2-1.8-4.2-5V4.7l14.4 18.7Z" fill="#fff"/></svg>