<svg width="125" height="24" fill="none" xmlns="http://www.w3.org/2000/svg"><path d="M1 23h8.9v-.4c-3.2-.5-4.2-1.8-4.2-5V2.9h.2L14.2 23h1.2L22.8 3h.2v17.8c0 1.3-.8 1.8-3.1 1.9v.4h11v-.4c-2.6-.1-3.3-.7-3.3-1.9V3c0-1.2.7-1.8 3.3-1.9V.7h-8.1l-6 16.4h-.2L10 .7H1v.4c2.7 0 3.9 1.5 3.9 3.5v13c0 3.2-1 4.6-4 5v.4ZM58.7 23.4h1.5V6c0-3.2.9-4.5 3.9-5V.7H55v.4c3.2.4 4.4 1.8 4.4 5v10.6L47 .7h-7.5v.4c2.7.1 4 1.8 4 3.7v12.8c0 3.2-1 4.6-4 5v.4h9v-.4c-3.3-.4-4.3-1.8-4.3-5V4.7l14.5 18.7ZM75.4 23h12.1v-.4c-2.8-.1-3.7-.7-3.7-1.9V1.3h.8C87 1.3 89 3.7 91.2 8h.5L91.5.6H71.4L71.2 8h.5c2.3-4.4 4.2-6.7 6.6-6.7h.8v19.4c0 1.2-.9 1.8-3.7 1.9v.4ZM118.8 23.4h1.6V6c0-3.2.8-4.5 3.8-5V.7h-9v.4c3.2.4 4.4 1.8 4.4 5v10.6L107.1.7h-7.5v.4c2.7.1 4 1.8 4 3.7v12.8c0 3.2-1 4.6-4 5v.4h9v-.4c-3.3-.4-4.3-1.8-4.3-5V4.7l14.4 18.7Z" fill="#fff"/></svg>